<?xml version="1.0" encoding="UTF-8" standalone="no"?>
<!DOCTYPE svg PUBLIC "-//W3C//DTD SVG 1.1//EN" "http://www.w3.org/Graphics/SVG/1.1/DTD/svg11.dtd">
<svg xmlns="http://www.w3.org/2000/svg" version="1.1" viewBox="0 0 389 569" width="389.0pt" height="569.0pt">
<path d="M 0.00 0.00 L 389.00 0.00 L 389.00 569.00 L 0.00 569.00 L 0.00 0.00 Z" fill="#ffffff" />
<path d="M 322.36 23.35 C 323.52 49.33 319.97 76.59 309.58 100.58 C 302.50 116.77 291.83 131.12 277.13 141.15 C 256.43 155.53 230.48 161.61 205.66 163.36 C 205.68 210.02 205.66 256.67 205.67 303.33 C 246.45 303.34 287.25 303.33 328.03 303.33 C 336.09 303.29 344.11 305.70 350.81 310.19 C 364.46 319.15 371.56 336.25 368.18 352.24 C 365.29 366.87 354.19 378.80 339.95 383.06 C 328.29 426.78 316.68 470.51 305.04 514.22 C 303.94 518.33 303.20 522.19 300.83 525.83 C 296.61 532.56 288.98 536.71 281.04 536.66 C 223.01 536.67 164.99 536.67 106.96 536.67 C 96.86 536.78 87.49 529.95 84.59 520.27 C 72.36 474.56 60.38 428.70 48.11 383.00 C 34.23 378.83 23.33 367.13 20.24 352.96 C 16.95 338.78 21.89 323.42 32.75 313.75 C 40.14 307.08 50.00 303.29 59.96 303.33 C 100.75 303.33 141.54 303.34 182.33 303.33 C 182.34 272.22 182.33 241.12 182.33 210.01 C 162.71 210.10 142.51 207.81 123.98 201.12 C 110.32 196.20 97.78 188.82 87.63 178.37 C 74.59 165.01 66.11 147.85 60.89 130.06 C 56.52 114.90 54.11 99.07 53.99 83.29 C 64.27 81.89 74.64 81.44 85.01 81.74 C 107.29 82.33 130.97 86.51 150.73 97.26 C 164.31 104.51 175.58 115.39 183.94 128.26 C 186.28 101.46 197.56 75.63 215.90 55.92 C 226.99 44.81 241.22 37.07 256.00 32.05 C 277.55 24.73 299.71 22.83 322.36 23.35 Z" fill="#000000" />
<path d="M 299.00 46.66 C 297.78 62.06 294.60 78.03 288.16 92.15 C 282.69 104.26 274.48 114.95 263.30 122.29 C 246.69 133.43 225.34 138.30 205.65 140.00 C 207.02 123.84 210.35 107.14 217.46 92.46 C 223.05 80.73 231.52 70.53 242.53 63.52 C 258.99 52.87 279.69 48.30 299.00 46.66 Z" fill="#ffffff" />
<path d="M 79.42 103.92 C 95.26 104.01 111.78 105.91 126.77 111.23 C 138.32 115.29 148.87 121.74 156.88 131.10 C 170.47 146.66 177.13 167.65 180.24 187.74 C 164.31 187.61 147.81 185.75 132.74 180.36 C 121.18 176.29 110.62 169.78 102.63 160.39 C 89.17 144.92 82.47 123.88 79.42 103.92 Z" fill="#ffffff" />
<path d="M 65.00 326.67 C 151.00 326.66 237.00 326.67 323.00 326.66 C 326.66 326.69 330.00 326.37 333.51 327.65 C 339.35 329.69 343.80 334.87 344.90 340.96 C 346.05 346.93 343.85 353.28 339.28 357.28 C 335.92 360.26 331.52 361.78 327.04 361.67 C 237.71 361.65 148.38 361.69 59.05 361.65 C 51.07 361.59 43.95 355.76 42.28 347.97 C 40.42 339.97 44.72 331.45 52.24 328.18 C 56.47 326.21 60.48 326.72 65.00 326.67 Z" fill="#ffffff" />
<path d="M 72.67 385.01 C 153.56 385.00 234.44 384.99 315.33 385.01 C 303.89 427.78 292.48 470.56 281.02 513.33 C 223.01 513.34 164.99 513.34 106.97 513.33 C 95.52 470.56 84.10 427.78 72.67 385.01 Z" fill="#ffffff" />
</svg>