<?xml version="1.0" encoding="UTF-8" standalone="no"?>
<!DOCTYPE svg PUBLIC "-//W3C//DTD SVG 1.1//EN" "http://www.w3.org/Graphics/SVG/1.1/DTD/svg11.dtd">
<svg xmlns="http://www.w3.org/2000/svg" version="1.1" viewBox="0 0 517 507" width="517.0pt" height="507.0pt">
<path d="M 0.00 0.00 L 517.00 0.00 L 517.00 507.00 L 0.00 507.00 L 0.00 0.00 Z" fill="#ffffff" />
<path d="M 63.00 36.80 C 196.00 36.79 329.01 36.81 462.01 36.79 C 467.19 36.57 471.89 39.04 474.48 43.54 C 476.76 47.32 476.13 51.78 476.21 56.00 C 476.18 190.00 476.24 324.02 476.18 458.02 C 476.25 465.15 470.13 471.23 463.02 471.17 C 327.34 471.20 190.66 471.20 54.98 471.17 C 47.87 471.22 41.78 465.13 41.83 458.02 C 41.78 322.69 41.84 186.41 41.80 50.99 C 41.56 45.58 44.34 40.63 49.18 38.18 C 53.10 36.09 58.65 36.96 63.00 36.80 Z" fill="#000000" />
<path d="M 68.82 63.19 C 195.82 63.19 322.81 63.19 449.81 63.19 C 449.81 190.19 449.81 317.18 449.81 444.18 C 406.21 444.19 362.61 444.18 319.00 444.18 C 319.00 426.40 319.00 408.61 319.00 390.82 C 329.54 389.50 339.78 386.59 349.00 381.25 C 354.07 384.79 359.50 387.71 365.48 389.41 C 377.78 392.97 391.38 391.70 402.74 385.74 C 413.22 380.28 421.60 371.00 425.92 359.99 C 430.49 348.50 430.55 335.37 426.18 323.80 C 422.59 314.22 416.25 306.07 407.89 300.17 C 413.13 290.26 415.37 279.11 412.66 268.07 C 408.40 249.73 392.27 235.63 373.60 233.52 C 367.17 215.53 353.37 200.57 335.53 193.49 C 319.34 187.00 300.66 186.93 284.49 193.58 C 271.41 198.87 260.36 208.37 252.96 220.37 C 244.05 220.08 235.28 221.30 227.19 225.18 C 215.31 230.71 205.80 240.93 201.16 253.18 C 196.59 265.13 196.77 278.62 201.36 290.54 C 189.09 301.23 181.75 316.69 181.62 333.00 C 181.32 349.87 188.79 366.42 201.59 377.38 C 213.18 387.47 228.70 392.49 244.00 391.19 C 254.14 390.43 263.79 386.85 272.24 381.24 C 278.42 384.85 285.09 387.24 292.00 389.03 C 292.00 407.41 292.00 425.80 292.00 444.18 C 217.60 444.18 143.21 444.19 68.82 444.18 C 68.81 317.18 68.82 190.19 68.82 63.19 Z" fill="#ffffff" />
<path d="M 165.49 98.61 C 177.26 96.18 189.72 97.41 200.74 102.23 C 214.31 108.09 225.45 119.21 231.32 132.77 C 237.58 146.98 237.82 163.64 231.98 178.04 C 226.89 190.78 217.21 201.56 205.11 208.03 C 194.44 213.79 181.99 216.07 169.97 214.51 C 155.57 212.73 142.08 205.35 132.70 194.31 C 124.96 185.25 120.06 173.87 118.91 162.00 C 117.49 148.07 121.25 133.80 129.35 122.38 C 137.85 110.27 150.98 101.58 165.49 98.61 Z" fill="#000000" />
<path d="M 169.50 124.75 C 183.73 121.12 199.28 127.88 206.15 140.87 C 213.21 153.91 209.75 170.93 198.38 180.36 C 187.01 190.15 169.44 190.49 157.53 181.47 C 148.14 174.52 143.50 162.52 145.41 151.03 C 147.31 138.37 157.06 127.73 169.50 124.75 Z" fill="#ffffff" />
<path d="M 314.00 215.10 C 329.00 216.01 342.60 225.87 348.22 239.79 C 350.17 244.02 350.37 248.66 351.92 252.97 C 353.99 257.94 359.61 261.32 364.98 260.72 C 369.35 260.46 373.46 260.42 377.41 262.60 C 383.73 265.92 387.97 272.78 387.36 280.01 C 386.90 285.93 383.52 291.41 378.26 294.23 C 374.85 296.04 372.26 298.89 372.31 302.95 C 373.29 307.45 375.33 313.04 379.45 315.56 C 383.01 318.03 387.50 317.38 391.59 319.38 C 400.15 323.30 405.49 332.68 404.75 342.02 C 404.20 350.09 398.98 357.26 391.77 360.77 C 384.07 364.60 374.23 363.82 367.27 358.74 C 364.72 356.88 363.10 354.22 360.66 352.32 C 357.16 349.78 352.75 348.45 348.50 349.75 C 344.75 350.82 341.70 354.28 338.35 356.35 C 321.57 367.30 298.00 365.99 282.23 353.76 C 278.48 350.71 274.01 349.15 269.19 350.43 C 266.14 351.09 264.28 353.07 262.13 355.14 C 255.53 361.50 246.17 364.80 237.03 363.53 C 224.20 361.91 213.40 351.74 210.99 339.04 C 208.47 326.66 214.12 313.41 225.13 307.07 C 230.08 304.36 233.78 299.93 233.42 293.99 C 233.40 288.10 229.31 285.48 227.59 280.24 C 224.60 272.24 225.88 262.96 231.25 256.27 C 237.14 248.76 247.21 245.27 256.48 247.68 C 261.14 249.00 265.87 248.83 269.85 245.83 C 273.56 243.14 274.12 239.09 276.29 235.29 C 283.60 221.86 298.81 213.94 314.00 215.10 Z" fill="#ffffff" />
</svg>