<?xml version="1.0" encoding="UTF-8" standalone="no"?>
<!DOCTYPE svg PUBLIC "-//W3C//DTD SVG 1.1//EN" "http://www.w3.org/Graphics/SVG/1.1/DTD/svg11.dtd">
<svg xmlns="http://www.w3.org/2000/svg" version="1.1" viewBox="0 0 589 499" width="589.0pt" height="499.0pt">
<path d="M 0.00 0.00 L 589.00 0.00 L 589.00 499.00 L 0.00 499.00 L 0.00 0.00 Z" fill="#ffffff" />
<path d="M 33.99 17.54 C 68.62 17.53 103.38 17.56 138.00 17.53 C 143.35 17.56 148.25 17.19 153.11 19.87 C 161.52 23.94 166.30 33.93 164.27 43.04 C 162.85 50.33 157.56 56.09 150.79 58.91 C 150.85 109.20 150.90 159.50 150.76 209.79 C 196.18 176.58 241.82 142.57 287.21 109.22 C 289.43 107.64 292.91 109.12 292.74 112.01 C 292.96 144.61 292.67 177.49 292.88 210.09 C 338.38 176.72 383.92 142.82 429.40 109.39 C 431.62 107.53 435.27 108.81 435.22 111.91 C 435.38 142.03 435.26 172.48 435.28 202.63 C 477.03 172.02 518.69 141.08 560.39 110.36 C 561.99 109.38 564.03 107.47 565.90 109.03 C 567.94 110.23 567.46 111.95 567.60 113.97 C 567.58 230.98 567.59 347.99 567.59 465.00 C 567.49 468.74 568.15 472.06 566.56 475.58 C 564.38 475.89 562.20 476.16 560.00 476.14 C 542.43 476.09 524.86 476.16 507.29 476.11 C 507.14 436.74 507.27 397.36 507.24 357.99 C 507.20 355.94 506.91 354.00 504.97 352.91 C 502.51 352.08 499.57 352.47 497.00 352.39 C 443.01 352.41 388.97 352.40 334.98 352.39 C 332.93 352.42 330.60 352.68 329.69 354.82 C 329.16 356.43 329.28 358.32 329.24 360.00 C 329.34 398.56 329.13 437.16 329.34 475.72 C 327.90 475.88 326.45 476.11 325.01 476.15 C 248.36 476.10 171.65 476.15 95.00 476.13 C 71.75 475.99 48.47 476.35 25.23 475.98 C 25.27 336.89 25.15 197.72 25.29 58.64 C 20.35 55.89 16.19 52.35 14.05 46.97 C 10.65 39.06 12.70 29.66 18.75 23.63 C 22.75 19.63 28.37 17.53 33.99 17.54 Z" fill="#262425" />
</svg>