<?xml version="1.0" encoding="UTF-8" standalone="no"?>
<!DOCTYPE svg PUBLIC "-//W3C//DTD SVG 1.1//EN" "http://www.w3.org/Graphics/SVG/1.1/DTD/svg11.dtd">
<svg xmlns="http://www.w3.org/2000/svg" version="1.1" viewBox="0 0 592 366" width="592.0pt" height="366.0pt">
<path d="M 0.00 0.00 L 592.00 0.00 L 592.00 366.00 L 0.00 366.00 L 0.00 0.00 Z" fill="#ffffff" />
<path d="M 19.52 9.60 C 68.29 37.81 117.21 65.80 166.01 93.95 C 168.35 95.25 170.14 96.81 172.97 96.73 C 184.04 97.19 195.10 97.71 206.17 98.20 C 209.73 92.06 213.17 85.85 216.74 79.71 C 222.06 70.75 231.62 64.60 241.97 63.44 C 264.63 60.89 287.31 58.40 309.96 55.84 C 312.73 55.60 315.37 54.86 318.04 55.80 C 347.61 64.82 377.44 73.86 407.05 82.87 C 409.03 83.68 411.60 81.97 413.49 81.36 C 466.93 60.34 520.41 39.34 573.86 18.35 C 576.11 24.16 578.40 29.96 580.61 35.79 C 523.36 58.04 466.13 80.34 408.90 102.62 C 379.19 93.85 349.49 85.04 319.79 76.24 C 317.33 75.57 314.55 74.32 312.00 74.70 C 291.02 77.10 269.98 79.49 248.99 81.87 C 245.35 82.33 241.48 82.34 238.20 84.19 C 235.62 85.57 233.64 87.67 232.20 90.20 C 226.50 100.15 220.81 110.13 215.09 120.07 C 213.26 123.35 211.21 126.09 211.08 129.99 C 210.79 135.74 214.48 141.30 219.99 143.05 C 225.31 144.78 231.15 142.95 234.59 138.57 C 244.11 126.62 253.78 114.77 263.18 102.73 C 274.11 102.48 285.06 102.72 296.00 102.60 C 299.00 102.35 301.01 104.15 303.54 105.46 C 329.23 119.77 354.95 134.05 380.65 148.34 C 382.87 149.62 385.59 150.77 387.33 152.66 C 410.35 178.04 433.52 203.46 456.58 228.81 C 463.64 221.74 470.68 214.73 477.72 207.65 C 478.67 206.63 479.63 206.31 480.98 206.05 C 512.46 199.77 543.91 193.29 575.39 187.03 C 576.59 193.28 577.89 199.51 579.12 205.75 C 550.68 211.60 522.26 217.51 493.82 223.32 C 491.79 223.85 488.99 223.86 487.57 225.54 C 481.47 231.74 475.32 237.86 469.20 244.04 C 472.22 249.93 473.91 256.35 473.60 263.00 C 473.17 275.97 465.46 288.11 453.91 293.99 C 441.70 300.39 426.67 299.09 415.54 291.04 C 412.73 300.34 406.35 308.22 397.78 312.80 C 391.75 316.09 384.98 317.39 378.14 317.08 C 377.44 329.54 369.66 340.50 358.21 345.41 C 349.34 349.31 339.24 349.01 330.43 345.06 C 325.55 355.93 313.88 362.89 301.98 361.70 C 293.20 361.12 285.01 354.21 277.27 350.14 C 274.38 353.82 270.99 356.85 266.52 358.45 C 257.91 361.76 247.77 359.24 241.69 352.31 C 237.79 347.98 236.01 342.51 235.88 336.73 C 226.63 341.29 215.51 340.97 206.83 335.28 C 198.82 330.15 193.98 321.38 193.55 311.90 C 187.09 317.56 178.54 320.35 169.99 319.11 C 160.02 317.80 151.17 311.03 147.26 301.76 C 143.75 293.61 144.26 284.22 148.46 276.42 C 141.17 280.23 132.74 280.90 124.98 278.15 C 114.98 274.67 107.38 265.49 105.84 255.01 C 104.85 249.03 105.97 243.14 108.43 237.65 C 104.20 233.51 99.92 229.44 95.71 225.29 C 93.64 223.01 90.35 222.62 87.51 221.55 C 62.27 213.09 36.89 204.88 11.71 196.25 C 13.83 190.24 15.73 184.16 17.69 178.11 C 44.76 187.05 71.76 196.20 98.81 205.19 C 101.31 206.09 103.69 206.40 105.57 208.42 C 110.35 213.21 115.15 217.98 119.96 222.73 C 128.34 215.99 139.96 213.94 150.00 217.98 C 159.26 221.61 166.21 230.16 167.82 239.98 C 168.98 246.41 167.75 252.85 164.84 258.65 C 169.73 254.58 175.62 251.98 182.00 251.57 C 191.88 250.80 201.76 255.43 207.58 263.43 C 211.39 268.56 213.13 274.66 213.31 281.00 C 219.00 276.46 223.52 271.77 230.81 269.81 C 243.65 266.07 257.87 272.00 264.24 283.73 C 267.57 289.99 269.49 298.03 266.07 304.65 C 273.88 304.33 281.34 307.72 285.81 314.18 C 290.10 320.25 290.88 327.87 288.57 334.87 C 292.55 337.08 296.34 339.74 300.46 341.67 C 306.72 343.75 313.19 338.53 312.61 331.98 C 312.49 328.56 310.18 327.18 308.06 324.94 C 295.43 312.32 282.82 299.66 270.21 287.01 C 274.72 282.62 279.00 277.95 283.70 273.77 C 298.92 289.38 314.62 304.54 329.81 320.19 C 333.44 323.54 336.49 328.04 341.50 329.28 C 347.93 331.09 354.75 327.66 358.01 322.04 C 360.38 317.82 360.28 311.70 357.13 307.90 C 341.02 291.88 324.57 275.37 308.46 259.26 C 312.86 254.83 317.26 250.39 321.68 245.97 C 337.68 262.00 353.89 278.15 369.85 294.18 C 375.14 298.93 384.11 298.85 389.81 294.81 C 395.24 291.15 398.13 284.43 397.06 277.97 C 396.50 274.18 394.60 270.80 391.87 268.15 C 376.52 252.83 361.19 237.49 345.87 222.15 C 350.30 217.71 354.73 213.28 359.17 208.85 C 380.88 230.53 402.48 252.14 424.14 273.87 C 430.30 280.02 440.48 280.64 447.39 275.36 C 453.52 271.04 456.71 260.93 452.67 254.40 C 427.18 225.59 401.09 196.32 375.53 167.48 C 373.81 165.57 371.06 164.45 368.85 163.17 C 345.26 150.07 321.66 137.00 298.09 123.88 C 296.25 122.94 294.15 121.26 292.02 121.37 C 285.47 121.35 278.91 121.40 272.36 121.38 C 265.70 129.72 259.05 138.08 252.39 146.43 C 249.51 150.01 247.08 153.51 243.38 156.34 C 236.29 161.93 226.87 164.21 218.00 162.54 C 207.04 160.58 197.58 152.53 193.91 142.02 C 190.88 133.76 191.64 124.72 195.43 116.85 C 185.94 116.46 176.46 116.03 166.97 115.66 C 163.97 115.73 162.03 113.86 159.49 112.50 C 109.69 83.60 59.86 54.72 10.06 25.82 C 13.23 20.42 16.26 14.94 19.52 9.60 Z" fill="#000000" />
<path d="M 134.52 235.66 C 138.90 233.72 144.21 235.07 147.01 238.98 C 149.81 242.79 149.65 247.99 146.73 251.69 C 144.02 255.05 141.57 260.12 137.02 260.99 C 130.70 262.53 124.15 257.49 124.07 251.00 C 123.96 247.24 126.03 244.92 128.12 242.09 C 130.00 239.71 131.61 236.90 134.52 235.66 Z" fill="#ffffff" />
<path d="M 181.97 270.80 C 188.35 270.14 193.96 275.62 193.45 282.01 C 193.10 287.23 189.29 289.57 186.03 293.03 C 182.60 296.27 180.15 300.10 175.01 300.50 C 168.49 301.10 162.92 295.52 163.66 288.98 C 164.14 284.05 168.09 281.56 171.21 278.21 C 174.55 275.09 177.00 271.19 181.97 270.80 Z" fill="#ffffff" />
<path d="M 247.53 293.48 C 249.67 297.67 248.74 303.06 245.06 306.07 C 241.17 309.20 237.06 312.08 233.10 315.14 C 231.01 316.68 228.99 318.45 226.72 319.73 C 222.37 322.04 216.21 320.72 213.62 316.39 C 210.92 312.04 211.79 306.05 215.86 302.85 C 221.21 298.53 226.59 294.22 231.99 289.97 C 236.95 286.05 244.75 287.81 247.53 293.48 Z" fill="#ffffff" />
<path d="M 267.10 324.11 C 270.48 323.51 272.78 326.98 271.03 329.94 C 269.05 332.85 266.08 335.11 263.72 337.72 C 262.42 338.92 260.91 340.95 259.00 340.95 C 256.12 341.03 254.05 338.05 255.26 335.40 C 256.75 333.27 258.87 331.54 260.67 329.67 C 262.66 327.91 264.58 325.03 267.10 324.11 Z" fill="#ffffff" />
</svg>