<?xml version="1.0" encoding="UTF-8" standalone="no"?>
<!DOCTYPE svg PUBLIC "-//W3C//DTD SVG 1.1//EN" "http://www.w3.org/Graphics/SVG/1.1/DTD/svg11.dtd">
<svg xmlns="http://www.w3.org/2000/svg" version="1.1" viewBox="0 0 540 435" width="540.0pt" height="435.0pt">
<path d="M 0.00 0.00 L 540.00 0.00 L 540.00 435.00 L 0.00 435.00 L 0.00 0.00 Z" fill="#ffffff" />
<path d="M 406.00 25.99 C 441.65 41.55 472.77 67.16 494.73 99.29 C 516.67 131.24 529.58 169.26 531.34 208.00 C 533.00 242.37 525.99 277.09 511.15 308.14 C 494.93 342.36 469.24 371.88 437.61 392.70 C 405.79 413.82 368.18 425.97 330.00 427.31 C 295.55 428.64 260.84 421.30 229.88 406.12 C 202.57 392.80 178.29 373.41 159.21 349.75 C 156.88 346.85 156.65 342.71 158.47 339.49 C 160.53 335.83 164.89 333.95 168.98 335.02 C 172.66 335.87 174.75 339.29 177.09 341.94 C 193.82 361.61 214.68 377.78 237.85 389.16 C 264.53 402.29 294.27 409.06 324.00 408.73 C 354.64 408.45 385.13 400.62 412.12 386.14 C 438.62 371.98 461.65 351.44 478.75 326.74 C 496.90 300.62 508.48 269.76 511.67 238.10 C 505.70 238.49 502.47 243.20 496.79 244.33 C 490.12 245.80 482.82 243.99 478.96 238.03 C 475.63 232.75 475.66 225.05 475.43 219.00 C 475.30 204.78 474.67 190.72 471.54 176.79 C 469.69 167.76 466.17 158.21 466.90 149.00 C 467.96 136.40 473.94 124.72 483.04 116.02 C 481.41 113.48 479.75 110.97 478.04 108.48 C 470.59 109.63 463.14 109.53 456.00 106.90 C 446.30 103.40 438.76 95.95 434.03 86.90 C 429.56 78.42 427.71 68.94 427.98 59.39 C 420.14 54.25 411.98 49.72 403.52 45.68 C 397.70 51.40 390.84 55.75 382.81 57.53 C 374.59 59.07 366.17 57.00 358.79 53.31 C 347.53 47.61 337.97 38.40 331.41 27.64 C 327.40 27.33 323.43 27.21 319.41 27.28 C 318.18 31.12 316.30 35.00 315.78 39.00 C 315.43 42.90 318.07 45.81 320.71 48.29 C 324.68 52.13 329.40 53.83 332.91 58.07 C 336.99 62.93 339.61 69.65 338.36 76.03 C 336.76 86.17 329.62 94.59 321.81 100.80 C 312.35 108.17 300.78 113.88 288.81 115.45 C 276.88 117.36 264.85 118.82 252.97 120.98 C 248.44 121.86 243.73 122.74 239.43 124.46 C 237.92 125.15 236.31 125.86 235.65 127.50 C 234.07 131.30 235.49 135.20 237.47 138.52 C 241.53 145.18 248.14 150.78 253.15 156.86 C 258.19 162.74 264.01 169.44 270.99 173.00 C 276.83 175.98 282.76 175.46 289.02 174.55 C 296.58 173.39 304.25 172.44 311.78 174.44 C 318.35 176.14 323.38 180.27 330.05 181.84 C 335.11 183.14 339.88 182.57 344.98 183.35 C 350.02 184.10 354.84 186.05 359.01 188.99 C 365.08 193.21 370.22 199.28 375.91 204.12 C 383.43 210.49 391.69 216.00 400.42 220.57 C 406.20 223.59 411.48 227.30 415.55 232.46 C 420.19 238.26 422.32 245.61 422.04 253.00 C 421.68 264.59 416.64 276.24 411.61 286.53 C 405.99 298.31 398.73 309.26 389.76 318.76 C 375.90 333.53 359.30 344.38 346.10 360.07 C 341.17 365.97 336.55 371.49 333.87 378.81 C 331.45 384.77 331.53 390.99 328.81 396.82 C 326.93 400.98 324.00 404.81 319.50 406.29 C 314.51 407.90 309.02 406.09 304.88 403.17 C 286.52 389.05 277.38 362.57 285.36 340.48 C 287.94 332.69 292.60 325.79 295.19 318.05 C 296.77 313.38 296.55 308.32 293.90 304.09 C 289.59 297.10 282.25 292.75 275.48 288.52 C 263.21 280.20 253.19 266.07 251.96 251.03 C 250.96 240.71 256.49 233.07 253.26 222.75 C 249.53 210.15 237.17 202.00 226.63 195.37 C 206.22 182.95 186.81 172.69 171.44 153.68 C 160.74 160.07 149.69 165.01 137.79 168.72 C 127.07 208.49 129.67 251.61 145.28 289.74 C 146.18 292.00 147.40 294.56 147.19 297.03 C 146.90 301.12 143.83 304.68 139.81 305.50 C 135.34 306.46 130.89 304.10 129.16 299.88 C 118.37 274.66 112.86 247.40 112.56 219.99 C 111.26 211.61 106.36 203.51 100.56 197.42 C 79.30 201.20 56.79 196.42 39.22 183.77 C 23.78 172.58 12.71 155.67 8.73 137.01 C 7.99 133.72 8.57 130.27 10.43 127.45 C 13.45 122.87 19.27 120.75 24.52 122.52 C 30.21 124.45 35.97 125.86 42.00 126.10 C 50.14 126.69 57.85 124.23 66.01 125.01 C 77.21 125.67 87.54 130.63 94.98 139.03 C 105.10 150.32 110.09 166.29 112.48 181.00 C 112.67 182.98 113.87 184.20 115.02 185.72 C 116.36 178.07 117.85 170.47 119.89 162.97 C 112.56 146.23 106.99 128.48 107.48 110.01 C 107.84 96.90 111.65 84.10 119.60 73.57 C 128.31 62.50 138.20 52.62 150.58 45.70 C 161.61 39.46 173.35 36.42 184.57 30.56 C 192.47 26.49 199.68 21.24 206.15 15.16 C 208.70 12.77 211.36 10.83 214.97 10.56 C 221.06 9.96 226.78 13.99 228.24 19.93 C 233.51 39.82 233.47 61.14 228.20 81.04 C 222.06 105.37 206.42 127.39 186.90 142.92 C 202.12 161.10 223.92 170.76 243.11 183.86 C 252.87 190.55 262.32 198.47 267.86 209.13 C 271.52 216.32 273.93 224.91 273.05 233.00 C 272.49 238.89 270.31 244.06 270.86 250.02 C 271.43 257.53 276.22 264.40 281.52 269.46 C 285.96 273.76 291.41 275.92 296.21 279.76 C 303.95 285.63 311.47 293.15 314.06 302.79 C 316.39 311.49 314.19 319.88 311.01 328.01 C 307.38 337.46 301.66 347.77 301.36 358.01 C 301.22 368.08 306.23 378.10 312.71 385.60 C 313.61 381.06 314.59 376.59 316.27 372.26 C 320.31 361.05 328.64 351.30 336.57 342.56 C 351.81 326.07 369.13 315.67 382.42 298.45 C 390.32 288.39 395.54 277.24 400.52 265.55 C 402.67 260.19 404.57 253.88 402.66 248.19 C 400.87 242.95 396.51 239.68 391.80 237.20 C 381.75 231.98 372.30 225.65 363.66 218.33 C 358.40 213.89 353.63 207.84 347.77 204.34 C 344.76 202.52 341.56 201.64 338.04 201.58 C 332.83 201.42 327.72 200.90 322.78 199.15 C 316.51 197.06 311.56 193.44 304.98 192.49 C 298.41 191.49 292.57 193.26 285.99 193.72 C 278.51 194.35 271.14 193.77 264.25 190.61 C 254.93 186.41 246.93 178.31 240.31 170.69 C 232.22 160.91 222.64 153.26 217.95 140.99 C 213.54 130.02 217.03 115.71 227.63 109.65 C 234.49 105.54 243.19 103.73 250.97 102.27 C 262.60 100.20 274.36 98.83 286.02 96.92 C 295.48 95.75 304.58 90.88 311.81 84.80 C 315.50 81.56 319.64 77.14 319.99 71.99 C 317.79 69.31 314.44 67.46 311.78 65.24 C 305.39 60.13 299.59 53.67 297.62 45.52 C 296.22 39.82 297.10 34.27 298.74 28.74 C 286.74 30.21 275.01 32.71 263.48 36.36 C 258.80 37.94 253.76 35.73 251.80 31.21 C 249.74 26.53 252.00 20.74 256.81 18.91 C 305.25 2.73 359.28 5.42 406.00 25.99 Z" fill="#000000" />
<path d="M 358.73 30.86 C 359.75 31.06 360.78 31.26 361.80 31.47 C 369.15 33.08 376.49 35.02 383.55 37.67 C 381.05 38.55 378.72 39.40 376.00 39.15 C 369.48 38.66 363.74 34.75 358.73 30.86 Z" fill="#ffffff" />
<path d="M 212.17 34.82 C 215.77 56.81 211.98 80.98 199.90 99.93 C 186.83 121.41 166.54 138.15 143.04 147.08 C 149.17 128.57 160.28 111.81 175.14 99.16 C 177.08 97.47 179.31 95.95 181.01 94.02 C 183.97 90.45 183.64 84.90 180.35 81.65 C 177.06 78.26 171.61 77.91 167.90 80.85 C 150.64 94.10 137.18 111.88 128.72 131.91 C 125.75 119.49 124.58 106.37 129.33 94.22 C 131.99 87.21 136.63 82.05 141.64 76.64 C 146.88 71.09 152.71 66.18 159.34 62.35 C 169.64 56.34 181.07 53.44 191.92 47.92 C 199.17 44.33 205.81 39.79 212.17 34.82 Z" fill="#ffffff" />
<path d="M 450.29 77.23 C 451.09 77.94 451.89 78.65 452.67 79.37 C 456.07 82.57 459.41 85.86 462.46 89.39 C 458.07 87.31 454.35 84.41 451.86 80.19 C 451.32 79.21 450.80 78.23 450.29 77.23 Z" fill="#ffffff" />
<path d="M 492.52 132.92 C 506.17 159.64 512.99 189.53 512.79 219.52 C 505.62 219.49 500.38 220.93 494.36 224.75 C 494.52 209.10 493.37 193.43 490.88 177.98 C 489.57 169.92 486.88 162.09 485.87 154.00 C 484.89 146.48 488.35 138.97 492.52 132.92 Z" fill="#ffffff" />
<path d="M 30.41 143.69 C 31.46 143.83 32.51 143.97 33.56 144.10 C 40.83 145.05 48.20 145.10 55.47 144.13 C 60.31 143.38 65.04 143.06 69.79 144.54 C 78.53 147.07 85.03 153.83 87.97 162.36 C 81.97 158.52 75.87 155.13 68.96 153.17 C 65.62 152.22 62.10 153.22 59.70 155.71 C 56.52 159.00 56.23 164.34 59.08 167.94 C 61.02 170.55 63.94 171.10 66.80 172.23 C 71.58 173.92 75.90 176.51 79.93 179.55 C 72.47 178.84 65.18 176.88 58.46 173.55 C 45.82 167.39 35.90 156.60 30.41 143.69 Z" fill="#ffffff" />
<path d="M 158.09 236.91 C 161.81 239.83 161.45 245.51 162.55 249.80 C 163.26 254.22 165.46 258.69 162.94 262.91 C 160.23 267.74 153.67 269.12 149.23 265.80 C 145.30 263.11 145.10 257.31 144.06 253.04 C 143.41 248.68 141.37 243.04 144.04 239.10 C 146.98 234.26 153.80 233.22 158.09 236.91 Z" fill="#000000" />
<path d="M 167.63 276.40 C 172.04 278.32 173.07 283.88 175.18 287.81 C 186.91 312.43 204.89 334.01 227.06 349.91 C 228.88 351.26 230.54 352.58 231.41 354.76 C 233.00 358.56 231.88 363.11 228.65 365.68 C 225.32 368.38 220.56 368.44 217.14 365.88 C 191.12 347.47 170.19 322.11 156.95 293.13 C 155.31 289.34 153.18 286.01 154.70 281.75 C 156.50 276.52 162.63 273.95 167.63 276.40 Z" fill="#000000" />
<path d="M 146.52 312.65 C 150.37 310.81 155.14 311.84 157.83 315.17 C 161.13 319.14 160.49 325.23 156.44 328.43 C 152.20 331.90 145.67 330.86 142.72 326.25 C 139.62 321.56 141.44 315.04 146.52 312.65 Z" fill="#000000" />
</svg>