<?xml version="1.0" encoding="UTF-8" standalone="no"?>
<!DOCTYPE svg PUBLIC "-//W3C//DTD SVG 1.1//EN" "http://www.w3.org/Graphics/SVG/1.1/DTD/svg11.dtd">
<svg xmlns="http://www.w3.org/2000/svg" version="1.1" viewBox="0 0 618 562" width="618.0pt" height="562.0pt">
<path d="M 0.00 0.00 L 618.00 0.00 L 618.00 562.00 L 0.00 562.00 L 0.00 0.00 Z" fill="#ffffff" />
<path d="M 416.99 6.48 C 438.99 6.44 461.00 6.49 483.00 6.46 C 486.96 6.49 490.75 6.13 494.54 7.53 C 501.36 10.00 506.11 16.68 506.09 23.96 C 506.14 52.91 506.10 82.03 506.11 111.00 C 506.18 124.57 504.17 138.11 499.91 150.99 C 491.91 175.45 476.01 197.15 455.19 212.25 C 436.83 225.68 414.72 233.81 392.03 235.49 C 385.64 235.98 379.41 235.87 373.00 235.88 C 358.55 235.88 344.10 235.87 329.64 235.88 C 329.64 259.41 329.64 282.94 329.64 306.46 C 417.87 306.49 506.69 306.43 594.84 306.49 C 604.63 306.61 612.56 315.28 611.96 325.01 C 611.54 334.42 603.46 341.95 594.04 341.75 C 505.91 341.76 417.78 341.75 329.65 341.76 C 329.64 362.84 329.65 383.93 329.64 405.02 C 346.79 422.18 363.94 439.33 381.11 456.48 C 402.05 456.45 423.04 456.48 444.00 456.46 C 450.45 456.35 456.50 459.75 459.67 465.37 C 463.11 471.31 462.66 479.04 458.57 484.54 C 455.21 489.16 449.74 491.82 444.04 491.75 C 434.83 491.78 425.60 491.73 416.38 491.76 C 425.69 501.08 435.00 510.39 444.31 519.69 C 446.98 522.38 449.97 524.93 451.55 528.47 C 454.27 534.31 453.50 541.45 449.57 546.56 C 443.18 555.11 430.25 555.89 422.86 548.18 C 403.55 528.87 384.25 509.57 364.94 490.26 C 364.92 499.52 364.98 508.78 364.93 518.04 C 365.01 524.53 361.44 530.64 355.73 533.72 C 349.76 537.03 342.09 536.47 336.67 532.33 C 332.18 528.96 329.58 523.66 329.64 518.03 C 329.64 497.69 329.63 477.28 329.66 456.95 C 329.65 455.35 329.54 454.84 328.40 453.70 C 322.92 448.23 317.46 442.79 311.98 437.31 C 297.69 451.59 283.42 465.90 269.12 480.17 C 267.83 481.30 267.89 482.26 267.86 483.89 C 267.90 500.95 267.86 517.99 267.89 535.05 C 267.97 539.38 266.71 543.60 263.94 546.97 C 259.73 552.24 252.60 554.65 246.05 553.01 C 238.69 551.28 232.99 544.63 232.65 537.04 C 232.45 530.28 232.65 523.51 232.57 516.74 C 222.26 527.03 211.96 537.33 201.68 547.64 C 199.01 550.37 195.83 552.43 192.04 553.16 C 184.96 554.67 177.45 551.50 173.59 545.40 C 169.23 538.71 170.07 529.43 175.68 523.72 C 195.06 504.27 214.67 484.74 234.08 465.28 C 221.71 465.25 209.32 465.34 196.95 465.25 C 189.41 465.22 182.54 459.99 180.39 452.78 C 178.48 446.52 180.25 439.51 184.98 434.98 C 188.47 431.55 193.11 429.87 197.98 429.98 C 221.80 429.98 245.62 430.01 269.44 429.96 C 277.71 421.62 286.06 413.35 294.34 405.02 C 294.34 383.93 294.35 362.84 294.34 341.76 C 206.21 341.75 118.08 341.76 29.96 341.75 C 23.75 341.84 17.86 338.68 14.62 333.38 C 10.83 327.34 11.18 319.21 15.50 313.54 C 18.92 308.95 24.28 306.38 30.00 306.46 C 118.11 306.47 206.23 306.47 294.34 306.46 C 294.34 282.94 294.34 259.41 294.34 235.88 C 282.23 235.86 270.11 235.92 258.00 235.85 C 240.64 235.69 223.38 231.23 208.17 222.84 C 189.68 212.72 174.37 196.98 164.78 178.22 C 157.13 163.36 153.18 146.70 153.18 130.00 C 153.15 112.65 153.18 95.30 153.16 77.95 C 153.14 74.62 153.75 71.35 155.41 68.43 C 158.56 62.80 164.54 59.35 171.00 59.41 C 189.33 59.41 207.67 59.37 226.00 59.43 C 253.92 59.85 280.99 71.91 300.27 92.05 C 309.62 62.93 330.04 37.84 356.61 22.71 C 374.90 12.20 395.89 6.58 416.99 6.48 Z" fill="#000000" />
<path d="M 417.00 41.77 C 434.94 41.72 452.87 41.77 470.81 41.75 C 470.81 65.17 470.82 88.60 470.80 112.02 C 470.83 125.95 467.60 139.84 461.26 152.26 C 453.24 168.07 440.37 181.33 424.79 189.81 C 411.99 196.84 397.47 200.51 382.87 200.56 C 365.13 200.59 347.39 200.57 329.64 200.57 C 329.64 181.38 329.64 162.19 329.64 143.00 C 329.71 133.15 329.21 123.75 331.10 114.00 C 335.09 91.75 348.02 71.51 366.37 58.35 C 381.03 47.75 398.91 41.89 417.00 41.77 Z" fill="#ffffff" />
<path d="M 188.47 94.71 C 200.98 94.74 213.50 94.63 226.01 94.76 C 246.19 95.27 265.65 104.95 278.37 120.59 C 288.38 132.76 294.08 148.23 294.31 163.99 C 294.39 176.19 294.32 188.38 294.34 200.57 C 282.21 200.56 270.09 200.62 257.96 200.55 C 236.60 200.35 215.99 189.93 203.06 172.95 C 193.84 161.01 188.66 146.13 188.49 131.04 C 188.44 118.93 188.48 106.82 188.47 94.71 Z" fill="#ffffff" />
</svg>