<?xml version="1.0" encoding="UTF-8" standalone="no"?>
<!DOCTYPE svg PUBLIC "-//W3C//DTD SVG 1.1//EN" "http://www.w3.org/Graphics/SVG/1.1/DTD/svg11.dtd">
<svg xmlns="http://www.w3.org/2000/svg" version="1.1" viewBox="0 0 700 568" width="700.0pt" height="568.0pt">
<path d="M 0.00 0.00 L 700.00 0.00 L 700.00 568.00 L 0.00 568.00 L 0.00 0.00 Z" fill="#ffffff" />
<path d="M 175.51 102.76 C 188.04 100.83 201.05 102.34 212.75 107.22 C 227.88 113.47 240.56 125.25 247.94 139.87 C 254.37 152.47 256.72 167.03 254.69 181.03 C 251.16 206.98 232.04 229.47 207.01 237.16 C 192.67 241.69 176.87 241.39 162.72 236.26 C 148.86 231.26 136.70 221.73 128.56 209.44 C 120.60 197.59 116.56 183.26 117.03 169.00 C 117.43 154.17 122.78 139.60 132.06 128.04 C 142.76 114.58 158.50 105.34 175.51 102.76 Z" fill="#000000" />
<path d="M 503.46 102.71 C 516.26 100.80 529.56 102.49 541.43 107.68 C 556.92 114.37 569.67 126.93 576.70 142.26 C 583.12 156.14 584.67 172.13 581.16 187.01 C 577.79 201.49 569.58 214.74 558.16 224.25 C 539.98 239.70 514.01 244.46 491.48 236.66 C 475.60 231.28 461.90 219.94 453.63 205.36 C 446.15 192.31 443.20 176.86 445.20 161.96 C 447.12 147.15 454.03 133.13 464.55 122.54 C 474.94 111.95 488.77 104.88 503.46 102.71 Z" fill="#000000" />
<path d="M 341.25 127.17 C 362.45 124.76 384.20 131.64 400.05 145.93 C 412.31 156.85 420.84 171.78 423.93 187.91 C 426.42 200.72 425.55 214.15 421.38 226.51 C 415.86 243.05 404.43 257.48 389.60 266.65 C 375.51 275.50 358.50 279.38 341.96 277.67 C 328.07 276.30 314.66 270.93 303.61 262.43 C 291.83 253.44 282.83 240.94 278.04 226.93 C 272.81 211.70 272.62 194.83 277.49 179.49 C 281.61 166.47 289.32 154.64 299.59 145.64 C 311.14 135.38 325.89 128.83 341.25 127.17 Z" fill="#000000" />
<path d="M 196.00 244.46 C 212.31 244.14 228.61 248.13 242.82 256.17 C 258.17 264.76 270.80 277.87 278.95 293.44 C 251.55 312.38 232.53 342.41 227.22 375.31 C 225.49 385.09 225.49 394.89 225.57 404.79 C 182.13 404.80 138.48 404.82 95.05 404.78 C 88.56 404.89 83.07 399.58 83.14 393.06 C 83.11 373.73 83.13 354.32 83.13 334.98 C 83.22 311.90 92.50 289.13 108.54 272.54 C 121.54 258.94 138.79 249.58 157.27 246.08 C 169.65 243.57 183.18 244.74 196.00 244.46 Z" fill="#000000" />
<path d="M 501.14 244.48 C 509.44 244.45 517.74 244.47 526.04 244.47 C 541.84 244.53 557.56 248.77 571.23 256.69 C 585.32 264.79 597.13 276.74 605.10 290.90 C 612.84 304.60 616.92 320.25 616.87 335.98 C 616.86 354.99 616.90 374.06 616.86 393.06 C 616.91 399.52 611.49 404.84 605.04 404.78 C 561.41 404.83 517.55 404.79 473.90 404.80 C 474.11 392.39 473.73 380.12 470.86 367.98 C 464.25 338.20 446.32 311.43 421.39 293.87 C 428.59 279.98 439.33 267.99 452.44 259.43 C 466.82 249.95 483.92 244.71 501.14 244.48 Z" fill="#000000" />
<path d="M 392.84 291.16 C 415.33 300.40 434.46 317.30 446.84 338.17 C 456.98 355.29 462.41 375.10 462.43 395.00 C 462.44 411.00 462.44 427.02 462.44 443.03 C 462.59 448.68 459.49 453.94 454.43 456.46 C 450.52 458.48 446.27 457.93 442.00 458.00 C 378.65 457.99 315.31 458.01 251.96 458.00 C 246.15 458.17 240.72 454.99 238.24 449.70 C 236.30 445.88 236.97 441.20 236.86 437.00 C 236.86 423.00 236.86 409.00 236.86 395.00 C 236.89 377.89 240.90 360.84 248.47 345.50 C 259.49 323.01 278.19 304.49 300.79 293.69 C 329.37 279.82 363.55 278.88 392.84 291.16 Z" fill="#000000" />
</svg>