<?xml version="1.0" encoding="UTF-8" standalone="no"?>
<!DOCTYPE svg PUBLIC "-//W3C//DTD SVG 1.1//EN" "http://www.w3.org/Graphics/SVG/1.1/DTD/svg11.dtd">
<svg xmlns="http://www.w3.org/2000/svg" version="1.1" viewBox="0 0 452 452" width="452.0pt" height="452.0pt">
<path d="M 0.00 0.00 L 452.00 0.00 L 452.00 452.00 L 0.00 452.00 L 0.00 0.00 Z" fill="#ffffff" />
<path d="M 28.00 8.79 C 159.66 8.80 291.34 8.79 423.00 8.79 C 425.99 8.81 429.05 8.64 432.03 8.98 C 437.88 9.81 442.73 15.00 443.10 20.91 C 443.32 24.26 443.16 27.64 443.19 31.00 C 443.20 163.68 443.18 296.37 443.20 429.06 C 443.40 434.19 440.91 438.90 436.45 441.46 C 432.47 443.87 427.47 443.07 423.00 443.19 C 289.65 443.19 156.30 443.18 22.94 443.20 C 17.81 443.40 13.10 440.92 10.52 436.46 C 8.22 432.63 8.88 428.29 8.79 424.00 C 8.80 290.63 8.80 156.32 8.79 22.94 C 8.58 17.78 11.06 13.11 15.54 10.52 C 19.36 8.24 23.73 8.87 28.00 8.79 Z" fill="#000000" />
<path d="M 35.27 35.27 C 37.83 35.09 40.43 35.19 43.00 35.19 C 167.40 35.19 291.79 35.18 416.18 35.19 C 416.18 162.19 416.19 289.18 416.18 416.18 C 341.79 416.19 267.40 416.18 193.00 416.18 C 193.00 397.80 193.00 379.41 193.00 361.03 C 199.92 359.24 206.59 356.84 212.78 353.25 C 225.62 361.93 241.51 365.30 256.75 362.33 C 272.23 359.40 286.14 349.83 294.51 336.49 C 302.81 323.46 305.44 307.12 301.75 292.12 C 298.99 280.60 292.52 270.36 283.65 262.56 C 288.21 250.62 288.42 237.18 283.85 225.22 C 278.95 212.23 268.57 201.55 255.74 196.27 C 248.20 193.05 240.18 192.14 232.04 192.37 C 222.40 176.62 206.41 165.46 188.28 161.90 C 170.47 158.38 151.39 162.07 136.47 172.51 C 124.84 180.55 116.21 192.27 111.40 205.52 C 106.83 206.21 102.36 207.24 98.13 209.18 C 83.81 215.52 73.23 229.37 71.48 245.01 C 70.29 254.56 72.73 263.73 77.10 272.17 C 70.06 277.17 64.35 283.77 60.63 291.58 C 54.65 303.85 53.95 318.49 58.80 331.25 C 62.94 342.34 71.19 351.76 81.61 357.39 C 91.53 362.79 103.20 364.56 114.31 362.62 C 122.23 361.28 129.48 357.87 136.00 353.25 C 145.22 358.59 155.46 361.50 166.00 362.83 C 166.00 380.61 166.00 398.40 166.00 416.18 C 122.40 416.18 78.79 416.19 35.19 416.18 C 35.18 291.79 35.19 167.40 35.19 43.00 C 35.19 40.43 35.09 37.83 35.27 35.27 Z" fill="#ffffff" />
<path d="M 295.46 70.65 C 311.40 67.26 328.44 70.79 341.67 80.32 C 352.80 88.24 361.03 100.08 364.46 113.32 C 367.98 126.66 366.60 141.16 360.59 153.58 C 355.08 165.07 345.79 174.63 334.46 180.46 C 322.22 186.84 307.74 188.62 294.30 185.46 C 280.68 182.33 268.38 174.14 260.15 162.86 C 252.76 152.82 248.72 140.46 248.81 128.00 C 248.80 114.85 253.40 101.84 261.62 91.59 C 270.06 80.98 282.18 73.43 295.46 70.65 Z" fill="#000000" />
<path d="M 299.52 96.80 C 312.51 93.43 326.72 98.60 334.28 109.72 C 342.69 121.73 341.78 138.92 331.68 149.66 C 320.90 161.47 301.90 163.40 288.90 154.12 C 276.73 145.73 271.83 129.19 277.58 115.54 C 281.43 106.26 289.80 99.24 299.52 96.80 Z" fill="#ffffff" />
<path d="M 206.39 203.60 C 208.66 206.64 210.04 210.05 211.60 213.46 C 214.04 218.78 220.38 221.41 225.97 220.21 C 229.35 219.52 232.55 218.67 236.04 218.98 C 245.17 219.50 253.54 225.43 257.07 233.86 C 260.48 241.85 259.22 251.21 254.24 258.27 C 250.74 263.03 250.51 269.97 254.36 274.60 C 256.57 277.47 259.48 278.63 262.33 280.69 C 271.49 287.26 276.05 298.98 274.19 310.05 C 272.38 321.56 263.68 331.36 252.49 334.57 C 242.33 337.64 231.12 334.78 223.38 327.62 C 220.97 325.40 219.15 323.14 215.77 322.42 C 210.97 321.16 206.51 322.72 202.77 325.76 C 187.00 337.98 163.44 339.30 146.66 328.35 C 143.30 326.28 140.25 322.82 136.49 321.75 C 132.27 320.45 127.80 321.79 124.33 324.33 C 121.90 326.22 120.27 328.88 117.73 330.74 C 111.40 335.37 102.58 336.44 95.27 333.65 C 87.38 330.68 81.32 323.46 80.34 315.01 C 79.12 305.11 84.82 294.96 94.06 291.09 C 97.97 289.43 102.21 289.89 105.55 287.56 C 109.68 285.03 111.72 279.43 112.69 274.92 C 112.76 272.20 111.32 269.47 109.18 267.83 C 107.24 266.38 105.08 265.41 103.26 263.76 C 99.00 259.79 96.90 253.74 97.80 247.98 C 99.08 239.76 106.55 232.89 114.92 232.63 C 119.65 232.43 123.55 233.70 127.81 230.90 C 131.91 228.58 133.70 224.65 134.38 220.15 C 136.89 205.02 148.48 192.29 163.31 188.39 C 179.16 184.01 196.92 190.11 206.39 203.60 Z" fill="#ffffff" />
</svg>