<?xml version="1.0" encoding="UTF-8" standalone="no"?>
<!DOCTYPE svg PUBLIC "-//W3C//DTD SVG 1.1//EN" "http://www.w3.org/Graphics/SVG/1.1/DTD/svg11.dtd">
<svg xmlns="http://www.w3.org/2000/svg" version="1.1" viewBox="0 0 314 256" width="314.0pt" height="256.0pt">
<path d="M 0.00 0.00 L 314.00 0.00 L 314.00 256.00 L 0.00 256.00 L 0.00 0.00 Z" fill="#ffffff" />
<path d="M 79.14 6.79 C 88.95 9.83 97.62 16.15 102.93 25.01 C 107.42 32.59 109.60 41.21 109.84 49.99 C 110.46 69.04 109.43 88.18 110.38 107.21 C 111.58 101.42 113.91 96.13 115.72 90.54 C 116.38 88.72 116.91 86.70 117.96 85.07 C 119.47 83.23 122.04 82.09 124.12 81.01 C 147.68 69.53 171.21 57.98 194.73 46.44 C 196.35 45.69 198.19 44.81 199.98 44.70 C 201.88 44.87 203.79 45.74 205.50 46.55 C 229.41 58.27 253.33 69.97 277.24 81.69 C 279.00 82.66 281.57 83.76 282.41 85.70 C 283.90 88.95 284.87 92.44 286.08 95.80 C 292.49 113.83 298.74 131.92 305.11 149.97 C 306.66 154.46 308.46 158.46 308.59 163.32 C 302.42 164.44 296.30 164.12 290.07 164.14 C 290.26 176.10 289.76 188.05 290.01 200.00 C 289.74 208.01 290.27 216.00 290.03 224.01 C 289.80 229.68 290.58 235.99 289.46 241.55 C 288.82 243.87 285.91 243.72 284.00 243.86 C 271.33 243.92 258.64 243.89 245.97 243.87 C 244.12 243.68 241.64 243.99 240.68 242.00 C 239.62 238.23 239.86 233.89 239.84 230.00 C 239.84 210.01 239.87 189.98 239.83 169.99 C 239.64 168.22 239.95 165.84 238.18 164.78 C 236.59 164.19 234.68 164.18 233.00 164.13 C 212.00 164.12 191.00 164.14 170.00 164.12 C 167.20 164.11 164.40 164.26 161.61 164.48 C 160.65 166.30 160.04 167.87 160.11 169.97 C 159.82 184.99 160.23 199.97 159.91 215.00 C 159.91 223.55 160.54 232.32 159.64 240.83 C 159.15 244.27 155.57 243.67 153.01 243.89 C 136.32 243.73 119.68 244.18 103.00 244.00 C 93.66 243.91 84.34 244.32 75.00 243.90 C 56.34 243.87 37.66 243.90 19.00 243.88 C 16.15 243.79 12.97 244.44 10.20 243.82 C 9.52 237.97 10.11 231.91 9.91 226.00 C 10.09 168.59 9.80 110.40 10.00 53.01 C 10.14 40.96 12.91 29.16 20.85 19.79 C 29.05 10.07 41.08 5.36 53.53 4.33 C 62.26 3.85 70.76 3.98 79.14 6.79 Z" fill="#010101" />
<path d="M 196.00 94.12 C 203.86 94.18 211.73 93.96 219.58 94.28 C 219.95 97.52 220.28 100.73 219.99 104.00 C 219.57 113.87 220.10 123.77 219.70 133.64 C 216.80 133.87 213.92 134.07 211.01 134.07 C 200.77 133.79 190.58 134.46 180.34 133.69 C 179.91 126.48 180.20 119.23 180.12 112.00 C 180.21 106.13 179.89 100.20 180.37 94.35 C 185.55 93.89 190.80 94.19 196.00 94.12 Z" fill="#ffffff" />
</svg>