<?xml version="1.0" encoding="UTF-8" standalone="no"?>
<!DOCTYPE svg PUBLIC "-//W3C//DTD SVG 1.1//EN" "http://www.w3.org/Graphics/SVG/1.1/DTD/svg11.dtd">
<svg xmlns="http://www.w3.org/2000/svg" version="1.1" viewBox="0 0 735 593" width="735.0pt" height="593.0pt">
<path d="M 0.00 0.00 L 735.00 0.00 L 735.00 593.00 L 0.00 593.00 L 0.00 0.00 Z" fill="#ffffff" />
<path d="M 216.00 25.06 C 228.33 25.02 240.67 25.05 253.00 25.04 C 259.11 25.04 265.19 25.98 270.95 28.05 C 286.75 33.55 299.34 46.93 303.84 63.05 C 306.86 73.20 305.60 82.86 305.90 93.48 C 315.58 96.11 325.76 99.43 334.41 104.60 C 339.40 107.61 344.39 111.67 347.02 116.99 C 349.81 122.47 349.60 129.21 346.57 134.55 C 343.36 140.36 337.49 144.63 331.77 147.75 C 321.01 153.52 308.46 156.80 296.54 159.12 C 296.53 179.51 286.29 198.97 269.35 210.33 C 257.06 218.70 241.79 222.39 227.02 220.51 C 210.18 218.41 194.67 209.01 184.69 195.32 C 176.96 184.83 172.80 172.14 172.69 159.11 C 161.13 156.87 149.10 153.73 138.58 148.33 C 132.80 145.32 126.84 141.20 123.31 135.60 C 119.94 130.35 119.29 123.54 121.85 117.82 C 124.39 112.08 129.45 107.91 134.69 104.71 C 143.37 99.47 153.63 96.16 163.36 93.47 C 163.57 83.36 162.50 73.13 165.28 63.51 C 168.71 50.94 176.98 39.91 188.02 33.03 C 196.38 27.78 206.14 25.08 216.00 25.06 Z" fill="#000000" />
<path d="M 456.00 26.05 C 468.00 26.04 480.00 26.04 492.00 26.05 C 498.12 26.04 504.19 26.99 509.95 29.05 C 525.81 34.57 538.42 48.02 542.89 64.21 C 545.84 74.30 544.61 83.92 544.90 94.48 C 554.58 97.11 564.76 100.43 573.40 105.60 C 578.40 108.61 583.39 112.67 586.02 117.99 C 588.81 123.47 588.60 130.21 585.57 135.55 C 582.25 141.57 576.06 145.95 570.11 149.10 C 559.49 154.65 547.25 157.84 535.54 160.12 C 535.52 180.02 525.80 199.04 509.53 210.52 C 497.04 219.45 481.27 223.46 466.02 221.51 C 449.18 219.41 433.67 210.01 423.69 196.32 C 415.96 185.83 411.80 173.14 411.69 160.11 C 401.88 158.20 392.39 155.82 383.16 151.94 C 375.28 148.58 366.47 143.61 361.97 136.04 C 359.08 131.91 360.01 125.91 360.14 121.07 C 361.38 115.61 366.23 110.81 370.68 107.69 C 379.88 101.23 391.61 97.45 402.36 94.47 C 402.58 83.96 401.44 73.80 404.49 63.77 C 408.92 48.31 420.77 35.41 435.77 29.65 C 442.22 27.10 449.08 26.02 456.00 26.05 Z" fill="#000000" />
<path d="M 216.00 43.83 C 228.33 43.79 240.67 43.83 253.01 43.81 C 259.66 43.77 266.20 45.58 271.78 49.21 C 280.54 54.83 286.34 64.60 287.00 75.00 C 287.27 79.90 287.06 84.83 287.12 89.73 C 252.59 85.03 216.66 85.03 182.12 89.73 C 182.32 82.08 181.34 74.03 183.85 66.82 C 188.31 53.10 201.57 43.65 216.00 43.83 Z" fill="#ffffff" />
<path d="M 455.00 44.83 C 467.33 44.79 479.67 44.83 492.01 44.81 C 498.66 44.77 505.20 46.58 510.78 50.21 C 519.54 55.83 525.34 65.60 526.00 76.00 C 526.27 80.90 526.06 85.83 526.12 90.73 C 491.59 86.03 455.66 86.03 421.12 90.73 C 421.32 83.08 420.34 75.03 422.85 67.82 C 427.31 54.10 440.57 44.65 455.00 44.83 Z" fill="#ffffff" />
<path d="M 229.00 104.80 C 248.09 104.52 267.36 105.63 286.21 108.78 C 296.12 110.53 306.37 112.64 315.82 116.14 C 321.41 118.30 326.64 120.55 330.68 125.15 C 329.12 127.20 327.40 128.89 325.14 130.17 C 316.56 135.26 306.17 138.12 296.51 140.39 C 296.40 135.93 296.77 131.39 296.27 126.95 C 295.53 122.38 291.54 119.64 287.03 119.77 C 252.06 119.75 216.91 119.72 181.96 119.78 C 177.86 119.73 174.16 122.11 173.12 126.17 C 172.33 130.80 172.88 135.69 172.74 140.38 C 163.16 138.22 152.94 135.49 144.33 130.66 C 142.46 129.48 139.84 128.10 138.89 126.02 C 140.10 123.25 142.56 121.60 145.05 120.08 C 151.00 116.64 157.87 114.46 164.48 112.70 C 185.50 107.33 207.35 105.16 229.00 104.80 Z" fill="#ffffff" />
<path d="M 468.00 105.80 C 487.09 105.52 506.36 106.63 525.21 109.78 C 535.12 111.53 545.37 113.64 554.82 117.14 C 560.41 119.30 565.64 121.55 569.68 126.15 C 568.12 128.20 566.40 129.89 564.14 131.17 C 555.56 136.26 545.17 139.12 535.51 141.39 C 535.40 136.93 535.77 132.39 535.27 127.95 C 534.53 123.38 530.54 120.64 526.03 120.77 C 491.06 120.75 455.91 120.72 420.96 120.78 C 416.86 120.73 413.16 123.11 412.12 127.17 C 411.33 131.80 411.88 136.69 411.74 141.38 C 402.16 139.22 391.94 136.49 383.33 131.66 C 381.46 130.48 378.84 129.10 377.89 127.02 C 379.10 124.25 381.56 122.60 384.05 121.08 C 390.00 117.64 396.87 115.46 403.48 113.70 C 424.50 108.33 446.35 106.16 468.00 105.80 Z" fill="#ffffff" />
<path d="M 191.49 137.55 C 220.24 137.55 248.99 137.55 277.74 137.55 C 277.61 145.75 277.98 154.00 277.54 162.18 C 276.00 178.96 263.94 193.76 248.01 199.08 C 236.87 202.90 224.34 201.68 214.08 195.92 C 201.03 188.72 192.05 174.83 191.53 159.84 C 191.41 152.42 191.52 144.98 191.49 137.55 Z" fill="#ffffff" />
<path d="M 430.49 138.55 C 459.24 138.55 487.99 138.55 516.74 138.55 C 516.61 146.75 516.98 155.00 516.54 163.18 C 515.00 179.96 502.94 194.76 487.01 200.08 C 475.87 203.90 463.34 202.68 453.08 196.92 C 440.03 189.72 431.05 175.83 430.53 160.84 C 430.41 153.42 430.52 145.98 430.49 138.55 Z" fill="#ffffff" />
<path d="M 182.98 225.50 C 282.99 225.51 383.01 225.48 483.03 225.51 C 502.54 225.60 521.51 228.83 538.81 238.19 C 551.54 245.21 563.53 253.87 573.74 264.26 C 587.17 277.84 597.71 293.77 606.03 310.91 C 620.48 340.71 628.40 374.32 632.86 407.01 C 634.88 420.63 629.41 435.03 618.29 443.29 C 604.99 453.16 585.46 452.82 572.40 442.68 C 564.57 436.73 559.30 427.79 558.01 418.03 C 555.09 396.55 550.52 374.74 542.62 354.50 C 537.27 340.90 530.33 327.66 520.52 316.73 C 520.48 379.15 520.52 441.58 520.50 504.00 C 512.17 504.00 503.83 504.01 495.49 503.99 C 495.50 433.99 495.51 363.97 495.49 293.97 C 495.32 289.31 497.14 284.74 500.68 281.68 C 504.86 278.90 510.98 279.08 515.23 281.64 C 521.13 284.86 526.67 288.79 531.69 293.27 C 546.72 306.65 557.35 324.68 564.94 343.15 C 573.25 363.46 578.47 385.42 581.91 407.06 C 582.83 412.37 582.68 417.22 586.57 421.42 C 590.95 426.46 598.72 426.67 604.00 422.98 C 606.79 420.91 608.54 417.55 608.12 414.03 C 606.91 404.29 605.30 394.59 603.33 384.97 C 597.18 355.02 586.73 324.18 568.87 299.08 C 560.59 287.47 550.74 277.12 539.09 268.85 C 532.67 264.20 525.97 260.13 518.51 257.35 C 506.88 252.98 494.34 251.76 482.00 251.74 C 385.00 251.73 288.00 251.75 191.00 251.73 C 185.40 251.76 179.33 251.22 174.40 254.40 C 150.53 269.00 135.10 293.45 125.08 319.00 C 115.79 342.91 110.51 368.48 108.34 394.01 C 108.14 397.51 107.50 401.73 108.90 405.02 C 111.26 411.50 120.37 415.25 126.29 411.28 C 129.86 409.11 132.70 405.32 132.94 401.05 C 134.42 376.53 139.41 352.02 148.01 328.99 C 153.61 314.32 161.24 299.59 171.91 287.94 C 174.26 285.40 176.53 282.95 180.01 282.06 C 183.55 281.03 187.66 282.45 190.74 284.23 C 194.39 286.64 195.52 290.82 195.50 294.99 C 195.50 328.66 195.50 362.33 195.50 396.00 C 195.50 400.04 195.58 403.98 195.35 408.00 C 193.38 440.00 191.42 472.00 189.46 503.99 C 181.10 504.01 172.74 504.00 164.38 504.00 C 166.22 473.94 168.06 443.87 169.91 413.81 C 170.16 409.53 170.53 405.29 170.50 401.00 C 170.48 380.43 170.52 359.86 170.48 339.29 C 163.61 360.19 158.29 381.93 157.78 404.01 C 156.89 412.59 153.33 421.03 147.22 427.20 C 138.05 436.63 123.53 439.71 110.93 437.10 C 101.91 435.18 94.41 429.23 89.72 421.39 C 85.09 413.62 82.26 404.09 83.19 395.00 C 84.53 377.64 87.43 360.38 91.62 343.47 C 96.93 322.30 104.54 301.24 115.35 282.22 C 127.84 260.29 144.56 241.31 166.87 229.03 C 171.86 226.36 177.37 225.45 182.98 225.50 Z" fill="#000000" />
<path d="M 307.99 275.51 C 340.90 275.48 374.14 275.52 407.04 275.48 C 410.78 275.43 414.35 276.20 417.07 278.93 C 419.79 281.65 420.55 285.22 420.51 288.95 C 420.49 360.61 420.50 432.33 420.51 503.99 C 412.17 504.00 403.83 504.00 395.49 503.99 C 395.50 436.16 395.50 368.33 395.50 300.50 C 370.50 300.50 345.50 300.50 320.50 300.50 C 320.50 334.67 320.51 368.84 320.50 403.00 C 320.52 407.03 320.84 410.95 321.08 415.00 C 322.89 444.67 324.70 474.33 326.50 504.00 C 318.14 504.00 309.78 504.01 301.42 503.99 C 299.48 471.62 297.42 439.22 295.54 406.84 C 295.43 367.56 295.54 328.24 295.48 288.95 C 295.45 285.46 296.07 282.13 298.45 279.43 C 300.89 276.65 304.37 275.53 307.99 275.51 Z" fill="#000000" />
<path d="M 261.48 430.53 C 268.39 435.51 272.42 443.56 273.00 451.99 C 274.10 469.32 275.14 486.67 276.21 504.00 C 267.85 504.00 259.48 504.00 251.12 504.00 C 250.04 487.01 249.11 469.94 247.92 452.97 C 247.66 450.41 244.76 451.31 243.09 451.71 C 241.99 469.14 240.93 486.57 239.87 504.00 C 231.51 504.00 223.14 504.00 214.78 504.00 C 215.86 486.68 216.89 469.34 217.99 452.02 C 218.55 443.58 222.60 435.52 229.52 430.53 C 238.77 423.80 252.23 423.80 261.48 430.53 Z" fill="#000000" />
<path d="M 468.64 443.44 C 470.27 446.08 470.52 448.94 470.52 451.96 C 470.48 469.30 470.51 486.65 470.51 503.99 C 462.17 504.00 453.83 504.00 445.49 503.99 C 445.49 486.65 445.52 469.30 445.48 451.96 C 445.47 448.93 445.70 446.07 447.34 443.43 C 451.69 436.14 464.30 436.15 468.64 443.44 Z" fill="#000000" />
</svg>