<?xml version="1.0" encoding="UTF-8" standalone="no"?>
<!DOCTYPE svg PUBLIC "-//W3C//DTD SVG 1.1//EN" "http://www.w3.org/Graphics/SVG/1.1/DTD/svg11.dtd">
<svg xmlns="http://www.w3.org/2000/svg" version="1.1" viewBox="0 0 116 117" width="116.0pt" height="117.0pt">
<path d="M 0.00 0.00 L 116.00 0.00 L 116.00 117.00 L 0.00 117.00 L 0.00 0.00 Z" fill="#ffffff" />
<path d="M 42.00 9.97 C 53.00 10.03 64.01 10.01 75.02 9.97 C 76.26 9.94 77.41 10.17 78.48 10.67 C 79.53 11.19 80.56 11.73 81.59 12.28 C 82.28 13.46 83.07 14.52 83.94 15.56 C 84.04 19.05 84.00 22.51 84.00 26.00 C 88.33 26.00 92.67 26.00 97.00 26.00 C 97.00 28.67 97.00 31.33 97.00 34.00 C 92.67 34.00 88.35 34.00 84.02 34.00 C 84.00 34.83 83.98 35.66 83.96 36.49 C 82.65 37.88 81.31 38.99 80.95 40.97 C 79.43 47.03 75.90 52.22 70.73 55.75 C 65.61 59.21 58.97 60.36 52.96 58.99 C 46.00 57.59 40.01 52.39 36.84 46.15 C 35.16 43.03 35.05 39.50 33.13 36.47 C 33.07 35.64 33.01 34.82 32.95 34.00 C 28.30 34.00 23.65 34.00 19.00 34.00 C 19.00 31.33 19.00 28.67 19.00 26.00 C 23.33 26.00 27.67 26.00 32.00 26.00 C 31.99 22.48 32.01 18.95 31.99 15.43 C 33.72 13.67 35.45 11.95 37.49 10.54 C 38.96 9.95 40.45 9.99 42.00 9.97 Z" fill="#000000" />
<path d="M 58.00 63.85 C 65.90 63.93 72.85 63.03 80.24 66.58 C 92.73 72.22 99.87 86.15 97.65 99.58 C 96.53 102.38 91.73 103.37 89.05 103.78 C 78.44 104.72 67.65 104.33 57.00 104.43 C 46.77 104.32 36.38 104.75 26.19 103.75 C 23.47 103.25 18.61 102.16 18.12 98.85 C 17.56 93.26 18.34 87.38 20.63 82.22 C 24.24 73.73 31.98 66.96 40.97 64.75 C 46.31 63.34 52.45 63.97 58.00 63.85 Z" fill="#000000" />
</svg>