<?xml version="1.0" encoding="UTF-8" standalone="no"?>
<!DOCTYPE svg PUBLIC "-//W3C//DTD SVG 1.1//EN" "http://www.w3.org/Graphics/SVG/1.1/DTD/svg11.dtd">
<svg xmlns="http://www.w3.org/2000/svg" version="1.1" viewBox="0 0 180 172" width="180.0pt" height="172.0pt">
<path d="M 0.00 0.00 L 180.00 0.00 L 180.00 172.00 L 0.00 172.00 L 0.00 0.00 Z" fill="#ffffff" />
<path d="M 52.98 19.61 C 59.90 19.75 67.00 18.31 72.39 23.61 C 77.08 27.83 76.87 32.85 77.11 38.69 C 80.54 40.12 85.26 41.39 87.66 44.36 C 89.59 46.78 89.27 49.92 87.10 52.06 C 84.05 55.15 78.78 56.30 74.76 57.59 C 73.85 62.08 72.95 66.22 69.56 69.56 C 63.40 76.21 52.34 76.52 45.80 70.24 C 41.94 66.87 40.76 62.47 39.91 57.61 C 35.60 56.22 29.66 54.99 26.79 51.22 C 25.15 49.10 25.12 46.83 26.70 44.66 C 29.01 41.51 33.89 40.15 37.39 38.76 C 37.66 34.51 37.44 29.65 40.09 26.06 C 43.16 21.70 47.64 19.51 52.98 19.61 Z" fill="#7c7c7c" />
<path d="M 118.95 19.81 C 125.70 19.78 132.97 18.71 138.34 23.66 C 143.05 27.85 143.36 33.18 143.48 39.10 C 147.00 40.46 151.68 41.79 154.08 44.88 C 155.88 47.29 155.46 50.27 153.36 52.32 C 150.28 55.39 145.05 56.58 141.00 57.83 C 139.98 62.57 139.04 66.90 135.29 70.30 C 128.92 76.64 118.10 76.64 111.76 70.25 C 108.03 66.87 106.98 62.53 105.93 57.82 C 102.06 56.63 97.30 55.49 94.16 52.84 C 91.76 51.14 91.46 47.25 92.89 44.89 C 95.26 41.81 100.02 40.45 103.53 39.09 C 103.75 35.01 103.51 31.24 105.57 27.56 C 108.19 22.62 113.43 19.85 118.95 19.81 Z" fill="#7c7c7c" />
<path d="M 57.00 24.70 C 61.41 24.84 65.86 24.32 69.18 27.80 C 72.07 30.65 71.67 34.12 72.11 37.85 C 61.89 36.44 52.73 36.44 42.50 37.83 C 43.06 34.09 42.58 30.31 45.61 27.57 C 48.80 24.47 52.88 24.84 57.00 24.70 Z" fill="#ffffff" />
<path d="M 123.00 25.02 C 127.29 25.15 131.80 24.61 135.13 27.85 C 138.24 30.55 137.72 34.46 138.20 38.20 C 128.30 36.72 118.52 36.90 108.61 38.10 C 109.16 34.46 108.87 30.49 111.86 27.86 C 114.98 24.82 118.97 25.14 123.00 25.02 Z" fill="#ffffff" />
<path d="M 74.55 43.75 C 78.20 44.46 81.43 46.09 84.62 47.94 C 81.47 49.68 78.19 51.06 74.83 52.31 C 74.37 50.65 74.56 47.94 73.31 46.69 C 68.39 45.70 63.02 46.41 58.00 46.26 C 52.37 46.42 46.40 45.68 40.86 46.75 C 40.36 48.56 40.15 50.46 39.85 52.30 C 36.96 51.26 33.75 50.35 31.15 48.72 C 31.02 47.58 31.46 46.82 32.47 46.43 C 35.10 44.97 38.11 44.13 41.04 43.57 C 52.09 41.56 63.52 41.64 74.55 43.75 Z" fill="#ffffff" />
<path d="M 108.21 43.64 C 119.01 41.93 130.21 41.94 140.95 44.08 C 144.54 44.76 147.69 46.39 150.77 48.29 C 147.68 49.95 144.47 51.31 141.21 52.58 C 140.56 50.72 140.97 46.64 138.11 46.69 C 129.77 46.27 121.36 46.73 113.00 46.50 C 111.14 46.66 108.17 46.18 106.82 47.71 C 106.33 49.29 106.11 50.96 105.78 52.58 C 102.45 51.37 99.23 49.98 96.14 48.23 C 99.90 45.99 103.86 44.30 108.21 43.64 Z" fill="#ffffff" />
<path d="M 45.46 51.46 C 53.39 50.91 61.43 51.44 69.39 51.25 C 69.25 56.67 69.82 61.52 65.65 65.68 C 61.16 70.40 53.75 70.51 49.14 65.90 C 44.99 61.94 44.92 56.80 45.46 51.46 Z" fill="#ffffff" />
<path d="M 111.49 51.63 C 119.48 51.62 127.48 51.62 135.47 51.63 C 135.26 56.50 135.95 61.58 132.40 65.46 C 127.96 70.64 119.83 70.89 115.08 65.99 C 111.03 62.07 111.72 56.79 111.49 51.63 Z" fill="#ffffff" />
<path d="M 44.99 76.16 C 72.67 76.28 100.37 76.14 128.04 76.23 C 138.81 76.16 147.89 82.47 154.37 90.61 C 162.12 100.58 165.71 113.80 167.49 126.11 C 168.21 130.20 167.23 134.27 164.01 137.03 C 160.06 140.41 154.13 140.21 150.31 136.75 C 147.04 134.03 146.87 129.76 146.13 125.87 C 144.80 117.15 141.94 108.76 136.65 101.61 C 136.38 119.22 136.61 136.83 136.53 154.44 C 134.22 154.44 131.90 154.44 129.59 154.44 C 129.57 135.60 129.63 116.81 129.54 97.99 C 129.65 96.06 129.51 93.40 130.90 91.88 C 133.27 90.34 135.53 92.15 137.52 93.44 C 145.41 99.30 149.36 109.09 151.73 118.32 C 152.91 122.47 152.89 127.33 154.80 131.19 C 156.52 133.67 161.17 132.17 160.64 129.02 C 160.19 122.97 158.66 116.92 156.84 111.15 C 153.74 101.69 148.52 92.49 139.89 87.08 C 135.73 84.37 130.95 83.40 126.04 83.43 C 102.04 83.46 78.01 83.45 54.00 83.44 C 50.11 83.48 46.10 83.16 42.23 83.68 C 39.41 84.38 36.89 86.89 34.94 88.94 C 28.49 96.01 25.13 106.04 23.35 115.28 C 22.72 119.08 21.99 123.24 22.64 127.07 C 24.00 129.35 27.70 129.33 28.73 126.76 C 29.75 122.48 29.63 118.00 30.75 113.72 C 32.38 106.81 35.01 99.15 39.81 93.79 C 41.37 91.82 43.53 92.36 45.76 92.04 C 46.41 96.35 46.61 100.65 46.51 105.00 C 46.30 114.17 46.80 123.03 46.08 132.04 C 45.50 139.50 45.37 146.98 44.83 154.45 C 42.56 154.44 40.29 154.43 38.02 154.43 C 38.45 138.92 40.09 123.56 39.40 108.02 C 38.10 112.63 36.81 117.16 36.45 121.97 C 35.99 125.73 36.13 129.42 33.47 132.43 C 30.57 135.94 25.67 136.48 21.54 135.20 C 17.24 133.22 15.18 128.65 15.42 124.04 C 15.88 114.75 18.17 105.39 21.85 96.85 C 25.13 89.33 30.47 81.79 37.64 77.56 C 39.97 76.15 42.36 76.24 44.99 76.16 Z" fill="#7c7c7c" />
<path d="M 85.00 90.22 C 91.36 90.36 97.71 90.12 104.07 90.25 C 105.72 90.49 107.40 89.98 108.25 91.77 C 108.78 93.40 108.73 95.28 108.78 96.98 C 108.68 116.13 108.76 135.28 108.73 154.43 C 106.41 154.43 104.08 154.43 101.76 154.44 C 101.76 135.38 101.75 116.32 101.76 97.26 C 94.90 97.27 88.04 97.27 81.18 97.26 C 81.19 105.84 81.18 114.42 81.18 123.00 C 81.14 133.45 82.12 143.86 82.82 154.44 C 80.51 154.43 78.20 154.43 75.89 154.43 C 73.85 134.62 74.22 114.82 74.23 94.94 C 74.43 93.40 74.05 91.56 75.61 90.66 C 78.62 89.97 81.92 90.26 85.00 90.22 Z" fill="#7c7c7c" />
<path d="M 59.96 132.40 C 63.56 132.14 66.88 134.60 67.53 138.16 C 68.40 143.52 68.34 149.03 68.83 154.44 C 66.48 154.44 64.14 154.44 61.79 154.44 C 61.52 149.17 61.34 143.91 60.56 138.68 C 58.90 143.86 58.91 149.09 58.66 154.45 C 56.35 154.44 54.03 154.43 51.71 154.42 C 52.14 149.42 52.12 144.37 52.75 139.40 C 53.26 135.65 55.96 132.42 59.96 132.40 Z" fill="#7c7c7c" />
<path d="M 122.39 138.43 C 123.08 143.68 122.53 149.14 122.65 154.44 C 120.34 154.44 118.02 154.44 115.71 154.43 C 115.85 149.05 115.22 143.46 116.03 138.14 C 116.95 134.77 121.72 135.01 122.39 138.43 Z" fill="#7c7c7c" />
</svg>